<?xml version="1.0" encoding="UTF-8" standalone="no"?><svg   xmlns:dc="http://purl.org/dc/elements/1.1/"   xmlns:cc="http://creativecommons.org/ns#"   xmlns:rdf="http://www.w3.org/1999/02/22-rdf-syntax-ns#"   xmlns:svg="http://www.w3.org/2000/svg"   xmlns="http://www.w3.org/2000/svg"   xmlns:sodipodi="http://sodipodi.sourceforge.net/DTD/sodipodi-0.dtd"   xmlns:inkscape="http://www.inkscape.org/namespaces/inkscape"   width="293"   height="294.15002"   id="svg2"   version="1.1"   inkscape:version="0.48.4 r9939"   sodipodi:docname="fedef-a-0.1.svg">  <defs     id="defs4" />  <sodipodi:namedview     id="base"     pagecolor="#ffffff"     bordercolor="#666666"     borderopacity="1.0"     inkscape:pageopacity="0.0"     inkscape:pageshadow="2"     inkscape:zoom="1"     inkscape:cx="149.96185"     inkscape:cy="99.39239"     inkscape:document-units="px"     inkscape:current-layer="layer3"     showgrid="false"     inkscape:window-width="1920"     inkscape:window-height="1028"     inkscape:window-x="1920"     inkscape:window-y="0"     inkscape:window-maximized="1"     fit-margin-top="0"     fit-margin-left="0"     fit-margin-right="0"     fit-margin-bottom="0" />  <metadata     id="metadata7">    <rdf:RDF>      <cc:Work         rdf:about="">        <dc:format>image/svg+xml</dc:format>        <dc:type           rdf:resource="http://purl.org/dc/dcmitype/StillImage" />        <dc:title></dc:title>      </cc:Work>    </rdf:RDF>  </metadata>  <g     inkscape:groupmode="layer"     id="layer2"     inkscape:label="Layer"     transform="translate(-103.5,-111.5)">    <path       sodipodi:type="arc"       style="fill:#c3dced;fill-opacity:1;fill-rule:nonzero;stroke:none"       id="path2996"       sodipodi:cx="169"       sodipodi:cy="186"       sodipodi:rx="138"       sodipodi:ry="138"       d="M 307,186 C 307,262.2153 245.2153,324 169,324 92.784705,324 31,262.2153 31,186 31,109.7847 92.784705,48 169,48 c 76.2153,0 138,61.7847 138,138 z"       transform="matrix(1.0615942,0,0,1.0615942,70.59058,60.543479)" />  </g>  <g     inkscape:groupmode="layer"     id="layer3"     inkscape:label="Layer#1"     style="display:inline"     transform="translate(-103.5,-111.5)">    <g       transform="scale(-1,1)"       style="font-size:300px;font-style:normal;font-variant:normal;font-weight:bold;font-stretch:normal;text-align:start;line-height:125%;letter-spacing:0px;word-spacing:0px;writing-mode:lr-tb;text-anchor:start;fill:#e6e6e6;fill-opacity:1;stroke:none;font-family:Josefin Sans;-inkscape-font-specification:Josefin Sans Bold"       id="text2992">      <path         d="m -286.37657,307.55002 0,-28.2 21.9,0 0,-27 c -3e-5,-26.79981 6.19996,-46.49979 18.6,-59.1 12.39993,-12.79977 30.39992,-19.59976 54,-20.4 l 0,27.3 c -15.60009,1.00021 -26.80008,6.00021 -33.6,15 -6.80007,9.00019 -10.20006,21.80017 -10.2,38.4 l 0,25.8 39.6,0 0,28.2 -39.6,0 0,95.6 -28.8,0 0,-95.6 -21.9,0"         id="path4046"         inkscape:connector-curvature="0"         sodipodi:nodetypes="cccscccsscccccccc" />    </g>    <g       style="font-size:300px;font-style:normal;font-variant:normal;font-weight:bold;font-stretch:normal;text-align:start;line-height:125%;letter-spacing:0px;word-spacing:0px;writing-mode:lr-tb;text-anchor:start;fill:#ffffff;fill-opacity:1;stroke:none;font-family:Josefin Sans;-inkscape-font-specification:Josefin Sans Bold"       id="text3766"       transform="translate(-0.25,0)">      <path         d="m 214.12343,307.55002 0,-28.2 21.9,0 0,-27 c -3e-5,-26.79981 6.19996,-46.49979 18.6,-59.1 12.39993,-12.79977 30.39992,-19.59976 54,-20.4 l 0,27.3 c -15.60009,1.00021 -26.80008,6.00021 -33.6,15 -6.80007,9.00019 -10.20006,21.80017 -10.2,38.4 l 0,25.8 39.6,0 0,28.2 -39.6,0 0,98.1 -28.8,0 0,-98.1 -21.9,0"         id="path4043"         inkscape:connector-curvature="0"         sodipodi:nodetypes="cccscccsscccccccc" />    </g>  </g>  <g     inkscape:groupmode="layer"     id="layer4"     inkscape:label="Layer#2"     sodipodi:insensitive="true"     style="display:none"     transform="translate(-103.5,-111.5)">    <g       transform="matrix(-1.0953049,0,0,0.91298781,-2.745055e-6,0)"       style="font-size:273.8963623px;font-style:normal;font-variant:normal;font-weight:bold;font-stretch:normal;text-align:start;line-height:125%;letter-spacing:0px;word-spacing:0px;writing-mode:lr-tb;text-anchor:start;fill:#ffffff;fill-opacity:1;stroke:none;display:inline;font-family:Josefin Sans;-inkscape-font-specification:Josefin Sans Bold"       id="text2992-5">      <path         d="m -261.23007,293.13507 0,-25.74626 19.99443,0 0,-24.65067 c -3e-5,-24.46791 5.66049,-42.45375 16.98157,-53.95758 11.321,-11.68604 27.75476,-17.89435 49.30135,-18.62495 l 0,24.92456 c -14.24269,0.91318 -24.46814,5.47812 -30.67639,13.69482 -6.20838,8.21706 -9.31253,19.90329 -9.31248,35.05874 l 0,23.55508 30.67639,0 0,25.74626 -30.67639,0 0,90.93359 -26.29405,0 0,-90.93359 -19.99443,0"         id="path3082"         inkscape:connector-curvature="0"         sodipodi:nodetypes="cccscccsscccccccc" />    </g>    <g       transform="matrix(1.0953049,0,0,0.91298781,-2.745055e-6,0)"       style="font-size:273.8963623px;font-style:normal;font-variant:normal;font-weight:bold;font-stretch:normal;text-align:start;line-height:125%;letter-spacing:0px;word-spacing:0px;writing-mode:lr-tb;text-anchor:start;fill:#ffffff;fill-opacity:1;stroke:none;display:inline;font-family:Josefin Sans;-inkscape-font-specification:Josefin Sans Bold"       id="text3766-3">      <path         d="m 195.26382,293.13507 0,-25.74626 19.99444,0 0,-24.65067 c -3e-5,-24.46791 5.66049,-42.45375 16.98157,-53.95758 11.321,-11.68604 27.75476,-17.89435 49.30135,-18.62495 l 0,24.92456 c -14.24269,0.91318 -24.46815,5.47812 -30.6764,13.69482 -6.20837,8.21706 -9.31253,19.90329 -9.31247,35.05874 l 0,23.55508 30.67639,0 0,25.74626 -30.67639,0 0,90.93359 -26.29405,0 0,-90.93359 -19.99444,0"         id="path3079"         inkscape:connector-curvature="0"         sodipodi:nodetypes="cccscccsscccccccc" />    </g>  </g></svg>